<?xml version="1.0" standalone="no"?>
<!DOCTYPE svg PUBLIC "-//W3C//DTD SVG 20010904//EN"
 "http://www.w3.org/TR/2001/REC-SVG-20010904/DTD/svg10.dtd">
<svg version="1.0" xmlns="http://www.w3.org/2000/svg"
 width="145.000000pt" height="145.000000pt" viewBox="0 0 145.000000 145.000000"
 preserveAspectRatio="xMidYMid meet">
<metadata>
Created by potrace 1.14, written by Peter Selinger 2001-2017
</metadata>
<g transform="translate(0.000000,145.000000) scale(0.100000,-0.100000)"
fill="#000000" stroke="none">
<path d="M0 725 l0 -725 725 0 725 0 0 725 0 725 -725 0 -725 0 0 -725z m839
474 c9 -9 24 -19 34 -22 9 -4 17 -15 17 -26 0 -11 5 -23 11 -26 6 -4 8 -13 5
-20 -2 -7 4 -21 14 -30 19 -17 20 -17 28 5 5 13 23 27 45 35 34 12 38 11 47
-6 9 -15 15 -17 36 -9 38 15 44 13 44 -15 0 -17 5 -25 18 -25 10 0 35 -16 56
-35 29 -26 35 -36 23 -40 -17 -7 -20 -57 -3 -67 6 -4 21 -8 34 -8 12 0 22 -6
22 -14 0 -8 7 -16 15 -20 8 -3 15 -14 15 -25 0 -11 6 -21 13 -24 8 -3 6 -11
-8 -27 -14 -16 -16 -24 -7 -27 6 -3 12 -16 12 -29 0 -15 6 -24 15 -24 8 0 15
-7 15 -15 0 -8 6 -25 13 -36 10 -17 10 -23 0 -26 -7 -3 -13 -13 -13 -23 0 -10
-7 -20 -15 -24 -8 -3 -15 -14 -15 -24 0 -11 -13 -33 -30 -50 -19 -21 -30 -26
-30 -17 0 21 -17 18 -30 -5 -9 -16 -15 -18 -30 -10 -25 13 -80 -13 -80 -38 0
-13 -2 -14 -9 -4 -5 9 -17 11 -37 6 -16 -4 -26 -3 -22 1 4 4 -9 18 -28 31 -41
28 -39 28 -58 9 -12 -13 -20 -14 -36 -5 -11 6 -29 8 -40 5 -12 -4 -20 0 -24
12 -4 13 -18 19 -50 21 -37 2 -46 -1 -51 -17 -3 -10 -5 -23 -3 -27 1 -5 -6
-23 -15 -41 -9 -18 -17 -40 -17 -50 1 -13 5 -11 16 9 12 24 42 48 58 48 3 0
-2 -12 -10 -27 -22 -43 -17 -49 15 -19 39 37 107 56 168 47 l48 -7 -69 -7
c-125 -14 -170 -48 -164 -128 5 -69 31 -82 189 -90 72 -4 133 -10 136 -13 4
-3 -168 -6 -382 -6 -214 0 -386 3 -383 6 4 3 51 10 106 14 55 5 116 16 136 24
26 11 36 11 39 3 6 -19 25 24 28 64 3 39 -26 90 -64 111 -12 6 -57 14 -100 18
-61 6 -83 12 -101 29 -18 17 -30 21 -48 15 -12 -4 -26 -7 -30 -6 -4 1 -24 -15
-44 -35 -27 -26 -39 -32 -43 -22 -9 28 -71 66 -90 55 -20 -13 -44 22 -37 52 4
15 8 40 10 55 3 32 13 44 41 49 13 2 20 11 20 28 0 20 -5 25 -25 25 -28 0 -55
29 -44 46 3 6 0 16 -7 21 -11 7 -11 11 -1 15 6 2 12 9 12 15 0 15 40 48 58 48
8 0 12 6 9 15 -7 17 11 31 35 27 26 -5 33 19 11 38 -11 9 -24 26 -27 38 -6 18
-3 22 13 22 14 0 21 6 21 20 0 13 7 20 20 20 13 0 20 7 20 20 0 11 6 20 14 20
8 0 24 12 36 27 26 33 79 58 94 43 10 -10 46 39 46 65 0 8 5 15 10 15 6 0 10
-4 10 -10 0 -5 11 -10 25 -10 14 0 25 4 25 9 0 4 11 6 25 3 14 -2 25 0 25 6 0
6 14 7 42 1 23 -6 47 -8 54 -5 8 3 16 0 20 -6 4 -7 10 -5 16 6 5 9 18 16 28
16 10 0 23 6 27 14 12 20 47 24 57 7 5 -9 17 -23 25 -32z"/>
<path d="M670 536 c-9 -27 -8 -45 3 -82 l13 -47 32 56 c37 66 38 69 14 90 -29
26 -49 21 -62 -17z"/>
<path d="M577 544 c-4 -4 -7 -17 -8 -28 0 -21 0 -21 -16 2 -16 23 -37 30 -31
10 3 -7 -9 -19 -26 -28 -17 -8 -32 -22 -34 -31 -2 -13 10 -17 62 -22 36 -3 75
-11 86 -17 22 -12 27 -1 8 18 -9 9 -9 12 -1 12 7 0 15 -4 18 -10 3 -5 11 -10
16 -10 16 0 0 43 -24 64 -12 10 -22 23 -22 29 0 13 -19 20 -28 11z"/>
<path d="M397 513 c-13 -12 -7 -41 9 -47 42 -16 60 7 28 38 -17 17 -27 20 -37
9z"/>
</g>
</svg>
